<?xml version="1.0" encoding="utf-8"?>
<!-- Svg Vector Icons : http://www.onlinewebfonts.com/icon -->
<!DOCTYPE svg PUBLIC "-//W3C//DTD SVG 1.1//EN" "http://www.w3.org/Graphics/SVG/1.1/DTD/svg11.dtd">
<svg version="1.1" xmlns="http://www.w3.org/2000/svg" xmlns:xlink="http://www.w3.org/1999/xlink" x="0px" y="0px" viewBox="0 0 1000 1000" enable-background="new 0 0 1000 1000" xml:space="preserve">
<metadata> Svg Vector Icons : http://www.onlinewebfonts.com/icon </metadata>
<g><path d="M741.7,307.3c-0.4-0.3-0.8-0.4-1.1-0.4c-0.3,0-0.8,0.1-1.2,0.5L635,419.2c-0.4,0.4-0.5,1-0.4,1.2c0,0.3,0.1,0.8,0.6,1.2l35.5,30.5c0.4,0.3,0.8,0.4,1.1,0.4c0.3,0,0.8-0.1,1.2-0.5l103.9-111.2c0.4-0.4,0.5-0.9,0.4-1.2c0-0.3-0.1-0.8-0.6-1.2L741.7,307.3z"/><path d="M608,470.2l-7.6,24.9l28.4-13l25.9-11.9l-37-31.8L608,470.2z"/><path d="M789.6,265.4c-2.2-2.1-4.9-2.5-6.8-2.5c-0.3,0-0.6,0-0.9,0c-3.7,0.3-7.3,2.1-10.1,5.1L757,283.8c-0.4,0.4-0.6,1-0.6,1.6c0,0.6,0.3,1.2,0.8,1.6l40.5,35.9l1.5-1.6l13.8-14.8c2.6-2.8,4.2-6.3,4.4-9.9c0.2-3.3-0.9-6.2-3-8.1L789.6,265.4z"/><path d="M500,10C229.8,10,10,229.8,10,500c0,270.2,219.8,490,490,490c270.2,0,490-219.8,490-490C990,229.8,770.2,10,500,10z M786.9,754.5c0,28.4-23.6,51.6-52.6,51.6h-3.6c-1.5,0.1-2.9,0.2-4.3,0.2H326.6c-1.4,0-2.8-0.1-4.3-0.2h-79.1c-29,0-52.6-22.6-52.6-50.3V255.4c0-27.7,23.6-50.3,52.6-50.3h251.2c29,0,52.6,22.6,52.6,50.3v48h46c10.1,0,18.8,5.7,22.9,14.9c4.1,9.2,2.3,19.5-4.5,27c-4.7,5.2-11.4,8.1-18.4,8.1h-80.5c-8.6,0-15.6-7-15.6-15.6v-81.9c-0.3-0.3-1.2-0.8-2.6-0.8H243.2c-1.4,0-2.2,0.5-2.6,0.8v499.4c0.3,0.3,1.2,0.8,2.6,0.8H313c-0.1-1.2-0.1-2.4-0.1-3.6V470.1c0-29.7,23.7-53.8,52.8-53.8h159.5c10.1,0,18.8,5.7,22.9,14.9c4.1,9.2,2.3,19.5-4.5,27c-4.7,5.2-11.4,8.1-18.4,8.1H365.6c-1.3,0-2.8,1.6-2.8,3.8v282.3c0,1.8,0.9,3.2,2,3.6h362.5c1-0.5,2-1.8,2-3.6V484.4c0-7.1,2.6-14,7.4-19.3c5.6-6.2,13.1-9.6,21.3-9.6c16,0,29,13,29,28.9V754.5z M587,620.7h-141c-10.6,0-19.2-9.5-19.2-21.3s8.6-21.3,19.2-21.3h141c10.6,0,19.2,9.5,19.2,21.3S597.6,620.7,587,620.7z M636.1,675.8c9.6,0,17.4,9.7,17.4,21.7c0,12-7.8,21.7-17.4,21.7H443.5c-9.6,0-17.4-9.7-17.4-21.7c0-12,7.8-21.7,17.4-21.7H636.1z M834.1,328.4L683.4,489.7c-0.9,1-2.1,1.8-3.3,2.4l-113.3,53.5c-1.1,0.5-2.3,0.8-3.5,0.8c-2.6,0-5-1.2-6.5-3.3c-1.5-2.1-2-4.7-1.2-7.2l36.2-117.8c0.5-1.6,1.3-3.1,2.5-4.3l154.5-165.3c8.4-8.9,19.5-14.4,31.4-15.3c1.2-0.1,2.4-0.1,3.6-0.1c11.1,0,21.6,4.1,29.6,11.6l20.4,19c8.7,8.1,13.6,19.4,13.6,31.7C847.3,307.5,842.6,319.3,834.1,328.4z"/></g>
</svg>